<svg xmlns="http://www.w3.org/2000/svg" viewBox="0 0 800 600">
  <!-- Background -->
  <rect width="800" height="600" fill="#f8f9fa" rx="10" ry="10" />
  <text x="400" y="40" font-family="Arial" font-size="24" text-anchor="middle" font-weight="bold">Eyeriss Ultra Architecture Overview</text>
  
  <!-- DRAM -->
  <rect x="50" y="80" width="700" height="50" fill="#ffcccc" stroke="#333" stroke-width="2" rx="5" ry="5" />
  <text x="400" y="110" font-family="Arial" font-size="18" text-anchor="middle">DRAM</text>
  
  <!-- Host Interface -->
  <rect x="50" y="150" width="120" height="80" fill="#d1e7dd" stroke="#333" stroke-width="2" rx="5" ry="5" />
  <text x="110" y="195" font-family="Arial" font-size="14" text-anchor="middle">Host Interface</text>
  
  <!-- Global Buffer -->
  <rect x="190" y="150" width="560" height="80" fill="#cfe2ff" stroke="#333" stroke-width="2" rx="5" ry="5" />
  <text x="470" y="195" font-family="Arial" font-size="18" text-anchor="middle">Global Buffer (1MB SRAM)</text>
  
  <!-- Control Logic -->
  <rect x="50" y="250" width="120" height="190" fill="#e2c8ff" stroke="#333" stroke-width="2" rx="5" ry="5" />
  <text x="110" y="290" font-family="Arial" font-size="14" text-anchor="middle" transform="rotate(0, 110, 290)">Control Logic</text>
  <rect x="60" y="310" width="100" height="50" fill="#d4b4ff" stroke="#333" stroke-width="2" rx="3" ry="3" />
  <text x="110" y="340" font-family="Arial" font-size="12" text-anchor="middle">Sparsity Handling</text>
  <rect x="60" y="370" width="100" height="50" fill="#d4b4ff" stroke="#333" stroke-width="2" rx="3" ry="3" />
  <text x="110" y="400" font-family="Arial" font-size="12" text-anchor="middle">Mixed-Precision</text>
  
  <!-- PE Array -->
  <rect x="190" y="250" width="560" height="200" fill="#fff2cc" stroke="#333" stroke-width="2" rx="5" ry="5" />
  <text x="470" y="275" font-family="Arial" font-size="18" text-anchor="middle">PE Array (16×16) Organized in 4×4 Clusters</text>
  
  <!-- Draw PE Clusters -->
  <g id="pe-clusters">
    <!-- First row of clusters -->
    <rect x="210" y="285" width="120" height="35" fill="#ffd580" stroke="#333" stroke-width="1" />
    <rect x="340" y="285" width="120" height="35" fill="#ffd580" stroke="#333" stroke-width="1" />
    <rect x="470" y="285" width="120" height="35" fill="#ffd580" stroke="#333" stroke-width="1" />
    <rect x="600" y="285" width="120" height="35" fill="#ffd580" stroke="#333" stroke-width="1" />
    
    <!-- Second row of clusters -->
    <rect x="210" y="325" width="120" height="35" fill="#ffd580" stroke="#333" stroke-width="1" />
    <rect x="340" y="325" width="120" height="35" fill="#ffd580" stroke="#333" stroke-width="1" />
    <rect x="470" y="325" width="120" height="35" fill="#ffd580" stroke="#333" stroke-width="1" />
    <rect x="600" y="325" width="120" height="35" fill="#ffd580" stroke="#333" stroke-width="1" />
    
    <!-- Third row of clusters -->
    <rect x="210" y="365" width="120" height="35" fill="#ffd580" stroke="#333" stroke-width="1" />
    <rect x="340" y="365" width="120" height="35" fill="#ffd580" stroke="#333" stroke-width="1" />
    <rect x="470" y="365" width="120" height="35" fill="#ffd580" stroke="#333" stroke-width="1" />
    <rect x="600" y="365" width="120" height="35" fill="#ffd580" stroke="#333" stroke-width="1" />
    
    <!-- Fourth row of clusters -->
    <rect x="210" y="405" width="120" height="35" fill="#ffd580" stroke="#333" stroke-width="1" />
    <rect x="340" y="405" width="120" height="35" fill="#ffd580" stroke="#333" stroke-width="1" />
    <rect x="470" y="405" width="120" height="35" fill="#ffd580" stroke="#333" stroke-width="1" />
    <rect x="600" y="405" width="120" height="35" fill="#ffd580" stroke="#333" stroke-width="1" />
  </g>
  
  <!-- Cluster Buffer Layer -->
  <rect x="190" y="465" width="560" height="60" fill="#d9d9ff" stroke="#333" stroke-width="2" rx="5" ry="5" />
  <text x="470" y="500" font-family="Arial" font-size="16" text-anchor="middle">Cluster Buffers (64KB SRAM per cluster)</text>
  
  <!-- Network-on-Chip -->
  <rect x="190" y="535" width="560" height="40" fill="#ffb3b3" stroke="#333" stroke-width="2" rx="5" ry="5" />
  <text x="470" y="560" font-family="Arial" font-size="16" text-anchor="middle">Network-on-Chip for Data Distribution</text>
  
  <!-- Arrows -->
  <defs>
    <marker id="arrowhead" markerWidth="10" markerHeight="7" refX="0" refY="3.5" orient="auto">
      <polygon points="0 0, 10 3.5, 0 7" fill="#333" />
    </marker>
  </defs>
  
  <!-- Vertical Data Flow Arrows -->
  <line x1="400" y1="130" x2="400" y2="150" stroke="#333" stroke-width="2" marker-end="url(#arrowhead)" />
  <line x1="400" y1="230" x2="400" y2="250" stroke="#333" stroke-width="2" marker-end="url(#arrowhead)" />
  <line x1="400" y1="450" x2="400" y2="465" stroke="#333" stroke-width="2" marker-end="url(#arrowhead)" />
  <line x1="400" y1="525" x2="400" y2="535" stroke="#333" stroke-width="2" marker-end="url(#arrowhead)" />
  
  <!-- Horizontal Control Flow Arrows -->
  <line x1="170" y1="320" x2="190" y2="320" stroke="#333" stroke-width="2" marker-end="url(#arrowhead)" />
  <line x1="170" y1="380" x2="190" y2="380" stroke="#333" stroke-width="2" marker-end="url(#arrowhead)" />
  
  <!-- Host Interface Arrows (Added) -->
  <line x1="170" y1="170" x2="190" y2="170" stroke="#333" stroke-width="2" marker-end="url(#arrowhead)" />
  <line x1="110" y1="230" x2="110" y2="250" stroke="#333" stroke-width="2" marker-end="url(#arrowhead)" />
</svg>